<svg width="50" height="50" viewBox="0 0 50 50" fill="none" xmlns="http://www.w3.org/2000/svg">
<path d="M17.7083 0H7.29172C5.56877 0 4.16672 1.40205 4.16672 3.125V46.875C4.16672 48.5979 5.56877 50 7.29172 50H17.7084C19.4314 50 20.8334 48.5979 20.8334 46.875V3.125C20.8333 1.40205 19.4313 0 17.7083 0Z" fill="#566574"/>
<path d="M42.7083 0H32.2917C30.5687 0 29.1667 1.40205 29.1667 3.125V46.875C29.1667 48.5979 30.5687 50 32.2917 50H42.7084C44.4313 50 45.8334 48.5979 45.8334 46.875V3.125C45.8333 1.40205 44.4312 0 42.7083 0Z" fill="#566574"/>
</svg>
